<svg xmlns="http://www.w3.org/2000/svg" xmlns:xlink="http://www.w3.org/1999/xlink" xmlns:lucid="lucid" width="1837.95" height="1300"><g transform="translate(-42.05 -20)" lucid:page-tab-id="0_0"><path d="M0 0h1870.4v1323.2H0z" fill="#fff"/><path d="M660 280h600v320H660z" fill="#147eba" fill-opacity=".13"/><path d="M660 280h56v56h-56v-56z" stroke="#fff" stroke-opacity="0" fill="#147eba"/><path d="M703.38 302.18c-.15-.17-.34-.25-.56-.25h-5.15v-5.58c-.03-2.54-.96-4.7-2.84-6.4-1.9-1.84-4.15-2.75-6.77-2.75-2.65 0-4.9.83-6.8 2.62-1.9 1.7-2.87 3.87-2.9 6.4v5.66h-5.15c-.24 0-.43.1-.58.25-.16.17-.22.34-.22.6V328c0 .43.34.8.8.8h29.6c.46 0 .8-.37.8-.8v-25.28c0-.2-.06-.38-.22-.54zm-23.46-5.9c.03-2.13.8-3.88 2.37-5.3 1.6-1.5 3.52-2.2 5.73-2.2 2.22 0 4.12.75 5.7 2.25 1.54 1.4 2.32 3.2 2.32 5.32v5.58H679.9zm22.1 30.94h-28.03v-23.7h28z" stroke="#fff" stroke-opacity="0" fill="#fff"/><path d="M687.2 317.3v6.25h1.6v-6.23c2.13-.4 3.62-2.2 3.63-4.35 0-2.43-1.97-4.4-4.4-4.43-2.2-.03-4.06 1.5-4.44 3.68-.42 2.4 1.2 4.68 3.6 5.1zm.82-7.15c.78 0 1.44.27 2 .82.54.56.82 1.22.8 2 .03 1.55-1.2 2.8-2.74 2.82h-.06c-1.56.1-2.92-1.06-3.04-2.62-.12-1.56 1.05-2.93 2.6-3.03.16-.02.28-.02.44 0z" stroke="#fff" stroke-opacity="0" fill="#fff"/><use xlink:href="#a" transform="matrix(1,0,0,1,731.0000000000001,300) translate(0 14.4)"/><use xlink:href="#b" transform="matrix(1,0,0,1,731.0000000000001,300) translate(60.9 14.4)"/><path d="M660 740h600v320H660z" fill="#147eba" fill-opacity=".13"/><path d="M660 740h56v56h-56v-56z" stroke="#fff" stroke-opacity="0" fill="#147eba"/><path d="M703.38 762.18c-.15-.17-.34-.25-.56-.25h-5.15v-5.58c-.03-2.54-.96-4.7-2.84-6.4-1.9-1.84-4.15-2.75-6.77-2.75-2.65 0-4.9.83-6.8 2.62-1.9 1.7-2.87 3.87-2.9 6.4v5.66h-5.15c-.24 0-.43.1-.58.25-.16.17-.22.34-.22.6V788c0 .43.34.8.8.8h29.6c.46 0 .8-.37.8-.8v-25.28c0-.2-.06-.38-.22-.54zm-23.46-5.9c.03-2.13.8-3.88 2.37-5.3 1.6-1.5 3.52-2.2 5.73-2.2 2.22 0 4.12.75 5.7 2.25 1.54 1.4 2.32 3.2 2.32 5.32v5.58H679.9zm22.1 30.94h-28.03v-23.7h28z" stroke="#fff" stroke-opacity="0" fill="#fff"/><path d="M687.2 777.3v6.25h1.6v-6.23c2.13-.4 3.62-2.2 3.63-4.35 0-2.43-1.97-4.4-4.4-4.43-2.2-.03-4.06 1.5-4.44 3.68-.42 2.4 1.2 4.68 3.6 5.1zm.82-7.15c.78 0 1.44.27 2 .82.54.56.82 1.22.8 2 .03 1.55-1.2 2.8-2.74 2.82h-.06c-1.56.1-2.92-1.06-3.04-2.62-.12-1.56 1.05-2.93 2.6-3.03.16-.02.28-.02.44 0z" stroke="#fff" stroke-opacity="0" fill="#fff"/><use xlink:href="#a" transform="matrix(1,0,0,1,731.0000000000001,760) translate(0 14.4)"/><use xlink:href="#b" transform="matrix(1,0,0,1,731.0000000000001,760) translate(60.9 14.4)"/><path d="M260 40h1600v1260H260z" stroke="#232f3e" stroke-width="2" fill="#fff" fill-opacity="0"/><path d="M260 40h56v56h-56V40z" stroke="#fff" stroke-opacity="0" fill="#232f3e"/><path d="M278.22 65.87c-.04.48.05.87.17 1.34.1.4.28.7.48 1.07.04.1.08.22.08.34 0 .2-.12.36-.28.46l-.95.62c-.12.08-.25.13-.37.13-.16 0-.33-.06-.45-.2-.2-.2-.36-.43-.52-.7-.17-.25-.3-.53-.46-.86-1.1 1.37-2.62 2.1-4.4 2.06-1.14.06-2.12-.3-2.95-1.08-.78-.8-1.15-1.76-1.1-2.85-.05-1.23.4-2.28 1.35-3.08 1.07-.85 2.3-1.23 3.66-1.16.57 0 1.02.02 1.6.1.57.1 1.1.2 1.72.33v-1.1c.08-.88-.16-1.67-.7-2.37-.74-.56-1.56-.8-2.46-.7-.53 0-1.03.07-1.6.2-.58.13-1.03.3-1.6.5l-.5.2h-.24c-.2 0-.33-.16-.33-.45v-.75c0-.18.04-.34.12-.5.12-.16.24-.26.4-.33.66-.3 1.2-.5 1.9-.67.77-.2 1.47-.3 2.3-.28 1.47-.13 2.78.26 3.9 1.2.94 1.05 1.35 2.28 1.22 3.67zm-6.07 2.28c.57 0 1.06-.1 1.6-.28.57-.2 1.02-.5 1.44-.96.23-.27.4-.56.48-.93.12-.45.16-.84.16-1.3V64c-.53-.1-.94-.17-1.43-.2H273c-.8-.08-1.55.12-2.2.58-.54.45-.8 1.04-.75 1.73-.04.6.13 1.16.54 1.6.44.38.97.52 1.55.45zm12 1.6c-.22 0-.42-.03-.6-.15-.15-.17-.23-.36-.32-.6l-3.5-11.5-.1-.62c0-.24.1-.37.36-.37h1.47c.2 0 .37.04.57.15.17.18.25.37.3.6l2.5 9.96 2.38-9.93c0-.24.08-.44.28-.6.17-.12.37-.16.58-.15h1.2c.24 0 .4.03.6.15.17.18.25.36.3.6l2.33 9.94 2.56-10c.04-.2.16-.4.33-.58.15-.1.36-.17.56-.14h1.4c.16 0 .33.1.37.3v.31s0 .2-.12.35L294 68.98c-.05.22-.13.42-.3.6-.2.1-.36.14-.57.13h-1.27c-.25.04-.45-.02-.62-.15-.16-.16-.25-.36-.3-.6l-2.3-9.6-2.3 9.6c-.03.24-.1.44-.27.6-.2.13-.4.2-.62.16zm19.2.38c-.82 0-1.5-.07-2.3-.25-.65-.13-1.14-.3-1.72-.6-.2-.1-.37-.23-.45-.42-.08-.14-.12-.28-.12-.43v-.75c0-.3.12-.46.32-.46h.3l.36.16c.58.23 1.03.4 1.6.5.62.14 1.15.2 1.8.2.8.05 1.5-.1 2.2-.5.48-.3.77-.8.72-1.4.05-.4-.12-.76-.36-1.04-.46-.4-.95-.65-1.52-.8l-2.18-.68c-.94-.25-1.73-.73-2.38-1.5-.5-.65-.74-1.35-.74-2.18 0-.6.12-1.08.4-1.6.3-.5.63-.9 1.08-1.22.5-.38.98-.6 1.6-.78.66-.18 1.2-.26 1.9-.25.32-.03.6-.03.97 0l1 .16.8.22.67.26c.16.1.28.22.45.38.08.15.12.3.12.5v.7c0 .32-.12.47-.37.47-.2-.03-.37-.08-.57-.18-.95-.42-1.8-.6-2.88-.58-.7-.04-1.3.1-1.97.4-.5.3-.74.8-.7 1.36 0 .4.13.76.46 1.05.5.4.98.65 1.6.82l2.1.67c.94.24 1.67.7 2.3 1.44.48.64.7 1.3.7 2.1 0 .63-.13 1.17-.38 1.73-.3.55-.62.95-1.1 1.32-.5.4-1 .66-1.6.84-.75.23-1.4.33-2.15.34zM306.1 77.48c-5.6 3.82-11.36 5.58-18.15 5.56-8.54.05-15.82-2.74-22.16-8.45-.5-.42 0-1 .48-.68 7.07 4.05 14.03 5.9 22.2 5.9 6.1-.04 11.3-1.1 16.93-3.47.83-.35 1.52.55.7 1.13z" stroke="#fff" stroke-opacity="0" fill="#fff"/><path d="M308.16 75.2c-.64-.82-4.16-.38-5.75-.2-.46 0-.53-.36-.1-.66 2.8-1.98 7.42-1.4 8-.74.6.67-.14 5.28-2.78 7.5-.4.32-.78.13-.6-.3.54-1.52 1.86-4.83 1.24-5.6z" stroke="#fff" stroke-opacity="0" fill="#fff"/><use xlink:href="#c" transform="matrix(1,0,0,1,331,60) translate(0 14.4)"/><use xlink:href="#d" transform="matrix(1,0,0,1,331,60) translate(45.3 14.4)"/><path d="M360 100h1400v1140H360z" fill="#fff" fill-opacity="0"/><path d="M367 100h6m4 0h6m4 0h6m4 0h6m4 0h6m4 0h6m4 0h6m4 0h6m4 0h6m4 0h6m4 0h6m4 0h6m4 0h6m4 0h6m4 0h6m4 0h6m4 0h6m4 0h6m4 0h6m4 0h6m4 0h6m4 0h6m4 0h6m4 0h6m4 0h6m4 0h6m4 0h6m4 0h6m4 0h6m4 0h6m4 0h6m4 0h6m4 0h6m4 0h6m4 0h6m4 0h6m4 0h6m4 0h6m4 0h6m4 0h6m4 0h6m4 0h6m4 0h6m4 0h6m4 0h6m4 0h6m4 0h6m4 0h6m4 0h6m4 0h6m4 0h6m4 0h6m4 0h6m4 0h6m4 0h6m4 0h6m4 0h6m4 0h6m4 0h6m4 0h6m4 0h6m4 0h6m4 0h6m4 0h6m4 0h6m4 0h6m4 0h6m4 0h6m4 0h6m4 0h6m4 0h6m4 0h6m4 0h6m4 0h6m4 0h6m4 0h6m4 0h6m4 0h6m4 0h6m4 0h6m4 0h6m4 0h6m4 0h6m4 0h6m4 0h6m4 0h6m4 0h6m4 0h6m4 0h6m4 0h6m4 0h6m4 0h6m4 0h6m4 0h6m4 0h6m4 0h6m4 0h6m4 0h6m4 0h6m4 0h6m4 0h6m4 0h6m4 0h6m4 0h6m4 0h6m4 0h6m4 0h6m4 0h6m4 0h6m4 0h6m4 0h6m4 0h6m4 0h6m4 0h6m4 0h6m4 0h6m4 0h6m4 0h6m4 0h6m4 0h6m4 0h6m4 0h6m4 0h6m4 0h6m4 0h6m4 0h6m4 0h6m4 0h6m4 0h6m4 0h6m4 0h6m4 0h6m4 0h6m4 0h6m4 0h6m4 0h6m4 0h6m4 0h6m4 0h6m4 0h3v3m0 4v6m0 4v6m0 4v6m0 4v6m0 4v6m0 4v6m0 4v6m0 4v6m0 4v6m0 4v6m0 4v6m0 4v6m0 4v6m0 4v6m0 4v6m0 4v6m0 4v6m0 4v6m0 4v6m0 4v6m0 4v6m0 4v6m0 4v6m0 4v6m0 4v6m0 4v6m0 4v6m0 4v6m0 4v6m0 4v6m0 4v6m0 4v6m0 4v6m0 4v6m0 4v6m0 4v6m0 4v6m0 4v6m0 4v6m0 4v6m0 4v6m0 4v6m0 4v6m0 4v6m0 4v6m0 4v6m0 4v6m0 4v6m0 4v6m0 4v6m0 4v6m0 4v6m0 4v6m0 4v6m0 4v6m0 4v6m0 4v6m0 4v6m0 4v6m0 4v6m0 4v6m0 4v6m0 4v6m0 4v6m0 4v6m0 4v6m0 4v6m0 4v6m0 4v6m0 4v6m0 4v6m0 4v6m0 4v6m0 4v6m0 4v6m0 4v6m0 4v6m0 4v6m0 4v6m0 4v6m0 4v6m0 4v6m0 4v6m0 4v6m0 4v6m0 4v6m0 4v6m0 4v6m0 4v6m0 4v6m0 4v6m0 4v6m0 4v6m0 4v6m0 4v6m0 4v6m0 4v6m0 4v6m0 4v6m0 4v6m0 4v6m0 4v6m0 4v6m0 4v6m0 4v6m0 4v6m0 4v6m0 4v6m0 4v6m0 4v6m0 4v6m0 4v6m0 4v6m0 4v3h-3m-4 0h-6m-4 0h-6m-4 0h-6m-4 0h-6m-4 0h-6m-4 0h-6m-4 0h-6m-4 0h-6m-4 0h-6m-4 0h-6m-4 0h-6m-4 0h-6m-4 0h-6m-4 0h-6m-4 0h-6m-4 0h-6m-4 0h-6m-4 0h-6m-4 0h-6m-4 0h-6m-4 0h-6m-4 0h-6m-4 0h-6m-4 0h-6m-4 0h-6m-4 0h-6m-4 0h-6m-4 0h-6m-4 0h-6m-4 0h-6m-4 0h-6m-4 0h-6m-4 0h-6m-4 0h-6m-4 0h-6m-4 0h-6m-4 0h-6m-4 0h-6m-4 0h-6m-4 0h-6m-4 0h-6m-4 0h-6m-4 0h-6m-4 0h-6m-4 0h-6m-4 0h-6m-4 0h-6m-4 0h-6m-4 0h-6m-4 0h-6m-4 0h-6m-4 0h-6m-4 0h-6m-4 0h-6m-4 0h-6m-4 0h-6m-4 0h-6m-4 0h-6m-4 0h-6m-4 0h-6m-4 0h-6m-4 0h-6m-4 0h-6m-4 0h-6m-4 0h-6m-4 0h-6m-4 0h-6m-4 0h-6m-4 0h-6m-4 0h-6m-4 0h-6m-4 0h-6m-4 0h-6m-4 0h-6m-4 0h-6m-4 0h-6m-4 0h-6m-4 0h-6m-4 0h-6m-4 0h-6m-4 0h-6m-4 0h-6m-4 0h-6m-4 0h-6m-4 0h-6m-4 0h-6m-4 0h-6m-4 0h-6m-4 0h-6m-4 0h-6m-4 0h-6m-4 0h-6m-4 0h-6m-4 0h-6m-4 0h-6m-4 0h-6m-4 0h-6m-4 0h-6m-4 0h-6m-4 0h-6m-4 0h-6m-4 0h-6m-4 0h-6m-4 0h-6m-4 0h-6m-4 0h-6m-4 0h-6m-4 0h-6m-4 0h-6m-4 0h-6m-4 0h-6m-4 0h-6m-4 0h-6m-4 0h-6m-4 0h-6m-4 0h-6m-4 0h-6m-4 0h-6m-4 0h-6m-4 0h-6m-4 0h-6m-4 0h-6m-4 0h-6m-4 0h-6m-4 0h-6m-4 0h-6m-4 0h-6m-4 0h-6m-4 0h-6m-4 0h-6m-4 0h-6m-4 0h-6m-4 0h-6m-4 0h-6m-4 0h-6m-4 0h-6m-4 0h-6m-4 0h-6m-4 0h-6m-4 0h-3v-3m0-4v-6m0-4v-6m0-4v-6m0-4v-6m0-4v-6m0-4v-6m0-4v-6m0-4v-6m0-4v-6m0-4v-6m0-4v-6m0-4v-6m0-4v-6m0-4v-6m0-4v-6m0-4v-6m0-4v-6m0-4v-6m0-4v-6m0-4v-6m0-4v-6m0-4v-6m0-4v-6m0-4v-6m0-4v-6m0-4v-6m0-4v-6m0-4v-6m0-4v-6m0-4v-6m0-4v-6m0-4v-6m0-4v-6m0-4v-6m0-4v-6m0-4v-6m0-4v-6m0-4v-6m0-4v-6m0-4v-6m0-4v-6m0-4v-6m0-4v-6m0-4v-6m0-4v-6m0-4v-6m0-4v-6m0-4v-6m0-4v-6m0-4v-6m0-4v-6m0-4v-6m0-4v-6m0-4v-6m0-4v-6m0-4v-6m0-4v-6m0-4v-6m0-4v-6m0-4v-6m0-4v-6m0-4v-6m0-4v-6m0-4v-6m0-4v-6m0-4v-6m0-4v-6m0-4v-6m0-4v-6m0-4v-6m0-4v-6m0-4v-6m0-4v-6m0-4v-6m0-4v-6m0-4v-6m0-4v-6m0-4v-6m0-4v-6m0-4v-6m0-4v-6m0-4v-6m0-4v-6m0-4v-6m0-4v-6m0-4v-6m0-4v-6m0-4v-6m0-4v-6m0-4v-6m0-4v-6m0-4v-6m0-4v-6m0-4v-6m0-4v-6m0-4v-6m0-4v-6m0-4v-6m0-4v-6m0-4v-6m0-4v-6m0-4v-6m0-4v-6m0-4v-6m0-4v-6m0-4v-6m0-4v-6m0-4v-6m0-4v-6m0-4v-6m0-4v-6m0-4v-6m0-4v-6m0-4v-3h3" stroke="#147eba" stroke-width="2" fill="none"/><path d="M360 100h56v56h-56v-56z" stroke="#fff" stroke-opacity="0" fill="#147eba"/><path d="M403.84 129.36l-5.96-7.36 5.96-7.4h-26.17v-2.08c.98-.32 1.62-1.16 1.62-2.2-.1-1.15-1.03-2.02-2.17-2.14-1.3-.08-2.44.87-2.53 2.15 0 1.03.63 1.87 1.58 2.2v33.88h-4.02v1.6h9.44v-1.6h-3.93v-17.04zm-26.96-19.75c.4-.03.76.33.76.73 0 .44-.32.75-.73.75-.4.04-.75-.3-.75-.7v-.05c0-.4.32-.72.73-.72zm23.6 6.62l-4.66 5.78 4.66 5.73h-22.8v-11.5z" stroke="#fff" stroke-opacity="0" fill="#fff"/><use xlink:href="#e" transform="matrix(1,0,0,1,431,120) translate(0 14.4)"/><path d="M1460 850h100v100h-100V850z" stroke="#fff" stroke-opacity="0" stroke-width="2" fill="#3b48cc"/><path d="M1524.6 887.64c0-3.85-7.58-5.65-14.66-5.65-7.1 0-14.67 1.8-14.67 5.64 0 .2.03.36.05.57v24.06c-.05 4.03 7.56 5.73 14.68 5.73 7.14 0 14.67-1.78 14.67-5.63v-24.73zm-14.63-3c7.76 0 12 2.13 12 3 0 .86-4.2 3-12 3-7.82 0-12-2.1-12-3 0-.87 4.2-3 12-3zm12 27.73c0 .86-4.2 2.95-12 2.95s-12-2.1-12-2.95v-4.2c2.8 1.54 7.53 2.26 12 2.26s9.14-.72 12-2.24zm0-7.6c0 .87-4.2 3-12 3-7.82 0-12-2.13-12-3h.03v-5.07c2.82 1.5 7.53 2.23 12 2.23 4.46 0 9.14-.72 12-2.2zm0-8.5c0 .87-4.2 3.03-12 3.03-7.82 0-12-2.16-12-3.02h.03v-5.2c2.85 1.53 7.5 2.2 12 2.2s9.23-.7 12-2.26zM1481.22 930.68h8.77v2.67h-12c-.74 0-1.33-.6-1.33-1.34v-12h2.66v8.77l10-9.98 1.87 1.86zM1543.33 920v12c0 .76-.6 1.35-1.34 1.35h-12v-2.67h8.78l-9.85-9.87 1.9-1.87 9.84 9.85V920zM1543.33 868.02v12h-2.66v-8.8l-9.85 9.85-1.9-1.9 9.85-9.83H1530v-2.66h12c.74 0 1.33.6 1.33 1.34zM1491.2 879.34l-1.86 1.86-10-10v8.8h-2.67v-12c0-.75.6-1.35 1.33-1.35h12v2.67h-8.78zM1489.55 911.95c-8.15-2.93-12.82-7.42-12.82-12.28 0-4.87 4.67-9.34 12.82-12.28l.9 2.5c-6.9 2.5-11.05 6.13-11.05 9.77 0 3.63 4.14 7.27 11.05 9.77zM1529.7 912.24l-.85-2.54c7.4-2.5 11.82-6.24 11.82-10.03 0-3.8-4.42-7.55-11.82-10.06l.86-2.5c8.67 2.9 13.63 7.5 13.63 12.57 0 5.05-4.96 9.63-13.62 12.57z" stroke="#fff" stroke-opacity="0" stroke-width="2" fill="#fff"/><use xlink:href="#f" transform="matrix(1,0,0,1,1430,959) translate(28.14999999999999 14.4)"/><use xlink:href="#g" transform="matrix(1,0,0,1,1430,959) translate(93.95 14.4)"/><use xlink:href="#h" transform="matrix(1,0,0,1,1430,959) translate(31.025 36)"/><path d="M1460 390h100v100h-100V390z" stroke="#fff" stroke-opacity="0" stroke-width="2" fill="#693cc5"/><path d="M1490 426.33h-12c-.73 0-1.33.6-1.33 1.32v42.7c0 .73.6 1.32 1.33 1.32h12c.73 0 1.33-.6 1.33-1.32v-42.7c0-.73-.6-1.32-1.33-1.32zm-1.34 42.66h-9.32v-40h9.32zM1508.67 462.88v7.45c0 .73-.6 1.34-1.34 1.34h-12c-.73 0-1.33-.6-1.33-1.34v-23c.45 2.6 1.28 4.75 2.67 7v14.66h9.33v-7c.9.4 1.7.66 2.67.88zM1508.67 419.68v4.72c-.97.26-1.76.54-2.67.93V421h-9.33v12c-1.4 2.24-2.22 4.4-2.67 7v-20.32c0-.74.6-1.35 1.33-1.35h12c.74 0 1.34.6 1.34 1.35zM1523.33 464v4.98H1514v-5.3c-.94 0-1.73-.08-2.67-.2v6.84c0 .77.6 1.35 1.34 1.35h12c.73 0 1.33-.58 1.33-1.35v-3.7zm1.34-56.33h-12c-.74 0-1.34.57-1.34 1.34v14.86c.94-.13 1.73-.2 2.67-.2v-13.3h9.33v15.6c.98.6 1.8 1.1 2.67 1.74V409c0-.76-.6-1.33-1.33-1.33zM1542 414.33h-12c-.73 0-1.33.6-1.33 1.35v14.45c1.08 1.16 1.87 2.27 2.67 3.66V417h9.32v40.96l2.67 2.7v-45c0-.74-.6-1.35-1.33-1.35z" stroke="#fff" stroke-opacity="0" stroke-width="2" fill="#fff"/><path d="M1541.7 462.88l-12-12.02c2.34-5.07 2.2-10.37-.42-15.35-4.48-8.42-14.95-11.64-23.4-7.17-8.46 4.47-11.73 14.92-7.24 23.4 4.48 8.48 14.95 11.7 23.45 7.24l11.76 11.8c2.2 2.16 5.7 2.16 7.85 0 2.2-2.17 2.2-5.67 0-7.84zm-42.36-19.26c0-8.06 6.54-14.65 14.67-14.65 8.1 0 14.67 6.6 14.67 14.65 0 8.1-6.58 14.7-14.66 14.7-8.12 0-14.66-6.6-14.66-14.7zm40.5 25.2c-1.12 1.1-2.94 1.1-4.1 0l-11.36-11.37c1.63-1.2 2.85-2.5 4-4.2l11.46 11.52c1.12 1.1 1.12 2.95 0 4.06z" stroke="#fff" stroke-opacity="0" stroke-width="2" fill="#fff"/><path d="M1508.1 450c-3.87-2.76-4.77-8.15-2-12 2.77-3.88 8.15-4.77 12-2 .1.05.16.1.25.16l-1.6 2.14c-2.63-1.95-6.36-1.4-8.3 1.25-1.96 2.64-1.4 6.36 1.22 8.3z" stroke="#fff" stroke-opacity="0" stroke-width="2" fill="#fff"/><use xlink:href="#i" transform="matrix(1,0,0,1,1430,499) translate(22.574999999999996 14.4)"/><use xlink:href="#j" transform="matrix(1,0,0,1,1430,499) translate(27.574999999999996 14.4)"/><use xlink:href="#k" transform="matrix(1,0,0,1,1430,499) translate(50.05 36)"/><path d="M260 701.6c-22.08 0-40-17.92-40-40s17.92-40 40-40 40 17.92 40 40-17.92 40-40 40zm0-76.56c-20.24 0-36.56 16.32-36.56 36.56 0 20.24 16.32 36.56 36.56 36.56 20.24 0 36.56-16.32 36.56-36.56 0-20.24-16.32-36.56-36.56-36.56z" stroke="#fff" stroke-opacity="0" fill="#693cc5"/><path d="M279.14 685.63h-6.38c-.96 0-1.7-.75-1.7-1.7v-33c-3.47-1.8-6.76-2.6-10.64-2.7-4.26.1-7.8 1.04-11.55 3.07v32.63c0 .95-.76 1.7-1.67 1.7h-6.34c-.96 0-1.7-.75-1.7-1.7V646.8c0-.5.2-.93.57-1.26 6.1-5 12.85-7.32 20.7-7.13 7.4-.14 13.8 1.94 19.75 6.33.46.33.67.8.67 1.33v37.87c0 .95-.75 1.7-1.7 1.7zm-4.67-3.4h2.96V646.9c-5.2-3.58-10.67-5.2-17-5.1-6.73-.18-12.52 1.7-17.86 5.77v34.66h2.92V650.2c0-.65.32-1.22.9-1.5 4.5-2.55 8.85-3.78 14.02-3.87 4.7.14 8.7 1.18 12.88 3.4h.17c.63.28 1 .85 1 1.56z" stroke="#fff" stroke-opacity="0" fill="#693cc5"/><use xlink:href="#l" transform="matrix(1,0,0,1,190,710.5999999999999) translate(39.525 14.4)"/><use xlink:href="#m" transform="matrix(1,0,0,1,190,710.5999999999999) translate(34.525 36)"/><path d="M460 701.6c-22.08 0-40-17.92-40-40s17.92-40 40-40 40 17.92 40 40-17.92 40-40 40zm0-76.8c-20.32 0-36.8 16.48-36.8 36.8 0 20.32 16.48 36.8 36.8 36.8 20.32 0 36.8-16.48 36.8-36.8 0-20.32-16.48-36.8-36.8-36.8z" stroke="#fff" stroke-opacity="0" stroke-width="3" fill="#693cc5"/><path d="M483.86 672.8h-3.06v-6.4c0-.9-.7-1.6-1.58-1.6h-4.83v-6.4c0-.9-.73-1.58-1.6-1.58h-11.2v-4.8h11.2c.87 0 1.6-.76 1.6-1.6V636c0-.9-.73-1.6-1.6-1.6h-25.6c-.88 0-1.6.7-1.6 1.6v14.42c0 .84.72 1.6 1.6 1.6h11.2v4.8h-11.2c-.88 0-1.6.7-1.6 1.6v6.38h-4.78c-.9 0-1.63.7-1.63 1.6v6.4h-3.06c-.87 0-1.58.73-1.58 1.58v8.03c0 .9.7 1.6 1.58 1.6h7.84c.92 0 1.63-.7 1.63-1.6v-8.02c0-.85-.7-1.6-1.62-1.6h-1.58V668h8v4.8h-1.58c-.92 0-1.63.75-1.63 1.6v8.03c0 .9.7 1.6 1.62 1.6h8c.86 0 1.57-.7 1.57-1.6v-8.02c0-.85-.72-1.6-1.58-1.6h-3.2v-6.4c0-.88-.73-1.58-1.64-1.58h-3.16V660h22.36v4.8h-3.16c-.92 0-1.63.7-1.63 1.6v6.4h-3.22c-.86 0-1.58.73-1.58 1.58v8.03c0 .9.72 1.6 1.58 1.6h8c.9 0 1.63-.7 1.63-1.6v-8.02c0-.85-.7-1.6-1.62-1.6h-1.58V668h8v4.8h-1.74c-.86 0-1.58.75-1.58 1.6v8.03c0 .9.72 1.6 1.58 1.6h8.05c.88 0 1.6-.7 1.6-1.6v-8.02-.05c-.06-.85-.78-1.54-1.64-1.54zm-41.46 7.98h-4.63V676h4.63zm12.8-4.77v4.78h-4.8V676zm-6.38-27.22v-11.16h22.36v11.16zm20.78 32h-4.8V676h4.8zm12.63 0h-4.8V676h4.8z" stroke="#fff" stroke-opacity="0" stroke-width="3" fill="#693cc5"/><use xlink:href="#n" transform="matrix(1,0,0,1,390,710.5999999999999) translate(26.074999999999996 14.4)"/><use xlink:href="#o" transform="matrix(1,0,0,1,390,710.5999999999999) translate(12.049999999999997 36)"/><use xlink:href="#p" transform="matrix(1,0,0,1,390,710.5999999999999) translate(57.05 36)"/><path d="M460 160h1200v1020H460z" stroke="#248814" stroke-width="2" fill="#fff" fill-opacity="0"/><path d="M460 160h56v56h-56v-56z" stroke="#fff" stroke-opacity="0" fill="#248814"/><path d="M491.76 188.3h-1.18v-1.1c-.12-1.73-1.48-3.07-3.2-3.2-1.9-.13-3.54 1.3-3.67 3.2v1.07h-1.17c-.44 0-.8.36-.8.8v6.13c0 .44.36.8.8.8h9.23c.44 0 .8-.36.8-.8v-6.1c0-.44-.36-.8-.8-.8zm-6.4-1.06c.1-1.02 1-1.77 2-1.67.9.08 1.58.77 1.67 1.67v1.06h-3.72zm5.65 7.08h-7.67v-4.42h7.63z" stroke="#fff" stroke-opacity="0" fill="#fff"/><path d="M502.27 185.74c-.08-2.44-1.58-4.47-3.87-5.3-1.58-.46-3.16-.13-4.4.9-.68-1.44-1.47-2.6-2.6-3.75-3.24-3.36-7.94-4.3-12.18-2.4-4.04 1.9-6.4 5.63-6.54 10.05v.7c-3.4.98-5.66 4.08-5.5 7.65v.63c.4 4.28 3.92 7.52 8.2 7.47h26s7.42-.63 7.42-8.1c.04-3.9-2.66-7.2-6.53-7.86zm-.96 14.4h-25.9c-3.47.05-6.3-2.53-6.6-5.97v-.52c-.15-3.05 1.93-5.7 4.92-6.3.38-.12.63-.48.6-.9-.06-.4-.06-.73 0-1.14.07-3.78 2.1-6.94 5.52-8.6 1.25-.56 2.4-.8 3.83-.84 2.62.08 4.87 1.04 6.7 2.94 1.25 1.3 2.04 2.6 2.62 4.3.03.15.1.28.24.37.37.27.87.2 1.12-.17.83-1.18 2.25-1.67 3.62-1.3 1.8.72 2.87 2.4 2.83 4.32-.07.4.22.82.64.9 3.57.36 6.2 3.55 5.82 7.12-.3 3.13-2.7 5.52-5.82 5.85z" stroke="#fff" stroke-opacity="0" fill="#fff"/><use xlink:href="#q" transform="matrix(1,0,0,1,531,180) translate(0 14.4)"/><use xlink:href="#r" transform="matrix(1,0,0,1,531,180) translate(55.5 14.4)"/><use xlink:href="#s" transform="matrix(1,0,0,1,531,180) translate(116.4 14.4)"/><path d="M560 680h800v440H560z" fill="#fff" fill-opacity="0"/><path d="M572 680h8m8 0h8m8 0h8m8 0h8m8 0h8m8 0h8m8 0h8m8 0h8m8 0h8m8 0h8m8 0h8m8 0h8m8 0h8m8 0h8m8 0h8m8 0h8m8 0h8m8 0h8m8 0h8m8 0h8m8 0h8m8 0h8m8 0h8m8 0h8m8 0h8m8 0h8m8 0h8m8 0h8m8 0h8m8 0h8m8 0h8m8 0h8m8 0h8m8 0h8m8 0h8m8 0h8m8 0h8m8 0h8m8 0h8m8 0h8m8 0h8m8 0h8m8 0h8m8 0h8m8 0h8m8 0h8m8 0h8m8 0h8m8 0h8m8 0h4v3.93m0 7.86v7.84m0 7.86v7.86m0 7.85v7.87m0 7.86v7.86m0 7.84v7.86m0 7.86v7.85m0 7.87v7.86m0 7.86v7.84m0 7.86v7.86m0 7.85v7.87m0 7.86v7.86m0 7.84v7.86m0 7.86v7.85m0 7.87v7.86m0 7.86v7.84m0 7.86v7.86m0 7.85v7.87m0 7.86v7.86m0 7.84v7.86m0 7.86v7.85m0 7.87v7.86m0 7.86v7.84m0 7.86v7.86m0 7.85v7.87m0 7.86v7.86m0 7.84v7.86m0 7.86v7.85m0 7.87v3.93h-4m-8 0h-8m-8 0h-8m-8 0h-8m-8 0h-8m-8 0h-8m-8 0h-8m-8 0h-8m-8 0h-8m-8 0h-8m-8 0h-8m-8 0h-8m-8 0h-8m-8 0h-8m-8 0h-8m-8 0h-8m-8 0h-8m-8 0h-8m-8 0h-8m-8 0h-8m-8 0h-8m-8 0h-8m-8 0h-8m-8 0h-8m-8 0h-8m-8 0h-8m-8 0h-8m-8 0h-8m-8 0h-8m-8 0h-8m-8 0h-8m-8 0h-8m-8 0h-8m-8 0h-8m-8 0h-8m-8 0h-8m-8 0h-8m-8 0h-8m-8 0h-8m-8 0h-8m-8 0h-8m-8 0h-8m-8 0h-8m-8 0h-8m-8 0h-8m-8 0h-8m-8 0h-8m-8 0h-8m-8 0h-8m-8 0h-8m-8 0h-4v-3.93m0-7.86v-7.84m0-7.86v-7.86m0-7.85v-7.87m0-7.86v-7.86m0-7.84v-7.86m0-7.86v-7.85m0-7.87v-7.86m0-7.86v-7.84m0-7.86v-7.86m0-7.85v-7.87m0-7.86v-7.86m0-7.84v-7.86m0-7.86v-7.85m0-7.87v-7.86m0-7.86v-7.84m0-7.86v-7.86m0-7.85v-7.87m0-7.86v-7.86m0-7.84v-7.86m0-7.86v-7.85m0-7.87v-7.86m0-7.86v-7.84m0-7.86v-7.86m0-7.85v-7.87m0-7.86v-7.86m0-7.84v-7.86m0-7.86v-7.85m0-7.87V680h4" stroke="#147eba" stroke-width="2" fill="none"/><use xlink:href="#t" transform="matrix(1,0,0,1,560.0000000000001,700) translate(334.825 14.4)"/><use xlink:href="#u" transform="matrix(1,0,0,1,560.0000000000001,700) translate(424.225 14.4)"/><path d="M560 220h800v420H560z" fill="#fff" fill-opacity="0"/><path d="M572 220h8m8 0h8m8 0h8m8 0h8m8 0h8m8 0h8m8 0h8m8 0h8m8 0h8m8 0h8m8 0h8m8 0h8m8 0h8m8 0h8m8 0h8m8 0h8m8 0h8m8 0h8m8 0h8m8 0h8m8 0h8m8 0h8m8 0h8m8 0h8m8 0h8m8 0h8m8 0h8m8 0h8m8 0h8m8 0h8m8 0h8m8 0h8m8 0h8m8 0h8m8 0h8m8 0h8m8 0h8m8 0h8m8 0h8m8 0h8m8 0h8m8 0h8m8 0h8m8 0h8m8 0h8m8 0h8m8 0h8m8 0h8m8 0h8m8 0h4v4.04m0 8.08v8.07m0 8.07v8.08m0 8.07v8.08m0 8.08v8.07m0 8.08v8.08m0 8.08v8.08m0 8.08v8.08m0 8.07v8.07m0 8.08v8.07m0 8.08v8.08m0 8.07v8.08m0 8.08v8.08m0 8.08v8.08m0 8.08v8.07m0 8.07v8.08m0 8.07v8.08m0 8.08v8.07m0 8.08v8.08m0 8.08v8.08m0 8.08v8.08m0 8.07v8.07m0 8.08v8.07m0 8.08v8.08m0 8.07v8.08m0 8.08v8.08m0 8.08V640h-4m-8 0h-8m-8 0h-8m-8 0h-8m-8 0h-8m-8 0h-8m-8 0h-8m-8 0h-8m-8 0h-8m-8 0h-8m-8 0h-8m-8 0h-8m-8 0h-8m-8 0h-8m-8 0h-8m-8 0h-8m-8 0h-8m-8 0h-8m-8 0h-8m-8 0h-8m-8 0h-8m-8 0h-8m-8 0h-8m-8 0h-8m-8 0h-8m-8 0h-8m-8 0h-8m-8 0h-8m-8 0h-8m-8 0h-8m-8 0h-8m-8 0h-8m-8 0h-8m-8 0h-8m-8 0h-8m-8 0h-8m-8 0h-8m-8 0h-8m-8 0h-8m-8 0h-8m-8 0h-8m-8 0h-8m-8 0h-8m-8 0h-8m-8 0h-8m-8 0h-8m-8 0h-8m-8 0h-8m-8 0h-8m-8 0h-8m-8 0h-4v-4.04m0-8.08v-8.07m0-8.07v-8.08m0-8.07v-8.08m0-8.08v-8.07m0-8.08v-8.08m0-8.08v-8.08m0-8.08v-8.08m0-8.07v-8.07m0-8.08v-8.07m0-8.08v-8.08m0-8.07v-8.08m0-8.08v-8.08m0-8.08v-8.08m0-8.08v-8.07m0-8.07v-8.08m0-8.07v-8.08m0-8.08v-8.07m0-8.08v-8.08m0-8.08v-8.08m0-8.08v-8.08m0-8.07v-8.07m0-8.08v-8.07m0-8.08v-8.08m0-8.07v-8.08m0-8.08v-8.08m0-8.08V220h4" stroke="#147eba" stroke-width="2" fill="none"/><use xlink:href="#t" transform="matrix(1,0,0,1,560.0000000000001,240) translate(334.825 14.4)"/><use xlink:href="#u" transform="matrix(1,0,0,1,560.0000000000001,240) translate(424.225 14.4)"/><path d="M1132.18 932.18h-64.36v-64.36h64.36zm-61.02-3.34h57.68v-57.68h-57.68z" stroke="#fff" stroke-opacity="0" fill="#d86613"/><path d="M1077.02 860h3.33v9.48h-3.33V860zM1087.47 860h3.33v9.48h-3.33V860zM1097.93 860h3.34v9.48h-3.34V860zM1108.4 860h3.33v9.48h-3.33V860zM1118.87 860h3.33v9.48h-3.33V860zM1077.02 930.52h3.33V940h-3.33v-9.48zM1087.47 930.52h3.33V940h-3.33v-9.48zM1097.93 930.52h3.34V940h-3.34v-9.48zM1108.4 930.52h3.33V940h-3.33v-9.48zM1118.87 930.52h3.33V940h-3.33v-9.48zM1130.52 877.42h9.48v3.33h-9.48v-3.33zM1130.52 887.87h9.48v3.33h-9.48v-3.33zM1130.52 898.33h9.48v3.34h-9.48v-3.34zM1130.52 908.8h9.48v3.33h-9.48v-3.33zM1130.52 919.25h9.48v3.33h-9.48v-3.33zM1060 877.42h9.48v3.33H1060v-3.33zM1060 887.87h9.48v3.33H1060v-3.33zM1060 898.33h9.48v3.34H1060v-3.34zM1060 908.8h9.48v3.33H1060v-3.33zM1060 919.25h9.48v3.33H1060v-3.33z" stroke="#fff" stroke-opacity="0" fill="#d86613"/><use xlink:href="#v" transform="matrix(1,0,0,1,1030,949) translate(25.525 14.4)"/><use xlink:href="#w" transform="matrix(1,0,0,1,1030,949) translate(23.599999999999994 36)"/><path d="M127.7 661.6h73.8" stroke="#000" stroke-width="2" fill="none"/><path d="M127.73 662.6h-1.03v-2h1.03z"/><path d="M216.76 661.6l-14.26 4.64v-9.28z" stroke="#000" stroke-width="2"/><path d="M301 661.6h100.5" stroke="#000" stroke-width="2" fill="none"/><path d="M301.03 662.6h-1.1l.07-1-.04-1h1.07z"/><path d="M416.76 661.6l-14.26 4.64v-9.28z" stroke="#000" stroke-width="2"/><path d="M1132.18 472.18h-64.36v-64.36h64.36zm-61.02-3.34h57.68v-57.68h-57.68z" stroke="#fff" stroke-opacity="0" fill="#d86613"/><path d="M1077.02 400h3.33v9.48h-3.33V400zM1087.47 400h3.33v9.48h-3.33V400zM1097.93 400h3.34v9.48h-3.34V400zM1108.4 400h3.33v9.48h-3.33V400zM1118.87 400h3.33v9.48h-3.33V400zM1077.02 470.52h3.33V480h-3.33v-9.48zM1087.47 470.52h3.33V480h-3.33v-9.48zM1097.93 470.52h3.34V480h-3.34v-9.48zM1108.4 470.52h3.33V480h-3.33v-9.48zM1118.87 470.52h3.33V480h-3.33v-9.48zM1130.52 417.42h9.48v3.33h-9.48v-3.33zM1130.52 427.87h9.48v3.33h-9.48v-3.33zM1130.52 438.33h9.48v3.34h-9.48v-3.34zM1130.52 448.8h9.48v3.33h-9.48v-3.33zM1130.52 459.25h9.48v3.33h-9.48v-3.33zM1060 417.42h9.48v3.33H1060v-3.33zM1060 427.87h9.48v3.33H1060v-3.33zM1060 438.33h9.48v3.34H1060v-3.34zM1060 448.8h9.48v3.33H1060v-3.33zM1060 459.25h9.48v3.33H1060v-3.33z" stroke="#fff" stroke-opacity="0" fill="#d86613"/><use xlink:href="#v" transform="matrix(1,0,0,1,1030,489) translate(25.525 14.4)"/><use xlink:href="#w" transform="matrix(1,0,0,1,1030,489) translate(23.599999999999994 36)"/><path d="M932.18 552.18h-64.36v-64.36h64.36zm-61.02-3.34h57.68v-57.68h-57.68z" stroke="#fff" stroke-opacity="0" fill="#d86613"/><path d="M877.02 480h3.33v9.48h-3.33V480zM887.47 480h3.33v9.48h-3.33V480zM897.93 480h3.34v9.48h-3.34V480zM908.4 480h3.33v9.48h-3.33V480zM918.87 480h3.33v9.48h-3.33V480zM877.02 550.52h3.33V560h-3.33v-9.48zM887.47 550.52h3.33V560h-3.33v-9.48zM897.93 550.52h3.34V560h-3.34v-9.48zM908.4 550.52h3.33V560h-3.33v-9.48zM918.87 550.52h3.33V560h-3.33v-9.48zM930.52 497.42H940v3.33h-9.48v-3.33zM930.52 507.87H940v3.33h-9.48v-3.33zM930.52 518.33H940v3.34h-9.48v-3.34zM930.52 528.8H940v3.33h-9.48v-3.33zM930.52 539.25H940v3.33h-9.48v-3.33zM860 497.42h9.48v3.33H860v-3.33zM860 507.87h9.48v3.33H860v-3.33zM860 518.33h9.48v3.34H860v-3.34zM860 528.8h9.48v3.33H860v-3.33zM860 539.25h9.48v3.33H860v-3.33z" stroke="#fff" stroke-opacity="0" fill="#d86613"/><use xlink:href="#x" transform="matrix(1,0,0,1,830,569) translate(18.574999999999996 14.4)"/><path d="M932.18 372.18h-64.36v-64.36h64.36zm-61.02-3.34h57.68v-57.68h-57.68z" stroke="#fff" stroke-opacity="0" fill="#d86613"/><path d="M877.02 300h3.33v9.48h-3.33V300zM887.47 300h3.33v9.48h-3.33V300zM897.93 300h3.34v9.48h-3.34V300zM908.4 300h3.33v9.48h-3.33V300zM918.87 300h3.33v9.48h-3.33V300zM877.02 370.52h3.33V380h-3.33v-9.48zM887.47 370.52h3.33V380h-3.33v-9.48zM897.93 370.52h3.34V380h-3.34v-9.48zM908.4 370.52h3.33V380h-3.33v-9.48zM918.87 370.52h3.33V380h-3.33v-9.48zM930.52 317.42H940v3.33h-9.48v-3.33zM930.52 327.87H940v3.33h-9.48v-3.33zM930.52 338.33H940v3.34h-9.48v-3.34zM930.52 348.8H940v3.33h-9.48v-3.33zM930.52 359.25H940v3.33h-9.48v-3.33zM860 317.42h9.48v3.33H860v-3.33zM860 327.87h9.48v3.33H860v-3.33zM860 338.33h9.48v3.34H860v-3.34zM860 348.8h9.48v3.33H860v-3.33zM860 359.25h9.48v3.33H860v-3.33z" stroke="#fff" stroke-opacity="0" fill="#d86613"/><use xlink:href="#y" transform="matrix(1,0,0,1,830,389) translate(31.525 14.4)"/><use xlink:href="#z" transform="matrix(1,0,0,1,830,389) translate(34.05 36)"/><path d="M980 300h240v740H980z" fill="#fff" fill-opacity="0"/><path d="M987 300h6m4 0h6m4 0h6m4 0h6m4 0h6m4 0h6m4 0h6m4 0h6m4 0h6m4 0h6m4 0h6m4 0h6m4 0h6m4 0h6m4 0h6m4 0h6m4 0h6m4 0h6m4 0h6m4 0h6m4 0h6m4 0h6m4 0h6m4 0h3v3m0 4v6m0 4v6m0 4v6m0 4v6m0 4v6m0 4v6m0 4v6m0 4v6m0 4v6m0 4v6m0 4v6m0 4v6m0 4v6m0 4v6m0 4v6m0 4v6m0 4v6m0 4v6m0 4v6m0 4v6m0 4v6m0 4v6m0 4v6m0 4v6m0 4v6m0 4v6m0 4v6m0 4v6m0 4v6m0 4v6m0 4v6m0 4v6m0 4v6m0 4v6m0 4v6m0 4v6m0 4v6m0 4v6m0 4v6m0 4v6m0 4v6m0 4v6m0 4v6m0 4v6m0 4v6m0 4v6m0 4v6m0 4v6m0 4v6m0 4v6m0 4v6m0 4v6m0 4v6m0 4v6m0 4v6m0 4v6m0 4v6m0 4v6m0 4v6m0 4v6m0 4v6m0 4v6m0 4v6m0 4v6m0 4v6m0 4v6m0 4v6m0 4v6m0 4v6m0 4v6m0 4v6m0 4v6m0 4v6m0 4v3h-3m-4 0h-6m-4 0h-6m-4 0h-6m-4 0h-6m-4 0h-6m-4 0h-6m-4 0h-6m-4 0h-6m-4 0h-6m-4 0h-6m-4 0h-6m-4 0h-6m-4 0h-6m-4 0h-6m-4 0h-6m-4 0h-6m-4 0h-6m-4 0h-6m-4 0h-6m-4 0h-6m-4 0h-6m-4 0h-6m-4 0h-6m-4 0h-3v-3m0-4v-6m0-4v-6m0-4v-6m0-4v-6m0-4v-6m0-4v-6m0-4v-6m0-4v-6m0-4v-6m0-4v-6m0-4v-6m0-4v-6m0-4v-6m0-4v-6m0-4v-6m0-4v-6m0-4v-6m0-4v-6m0-4v-6m0-4v-6m0-4v-6m0-4v-6m0-4v-6m0-4v-6m0-4v-6m0-4v-6m0-4v-6m0-4v-6m0-4v-6m0-4v-6m0-4v-6m0-4v-6m0-4v-6m0-4v-6m0-4v-6m0-4v-6m0-4v-6m0-4v-6m0-4v-6m0-4v-6m0-4v-6m0-4v-6m0-4v-6m0-4v-6m0-4v-6m0-4v-6m0-4v-6m0-4v-6m0-4v-6m0-4v-6m0-4v-6m0-4v-6m0-4v-6m0-4v-6m0-4v-6m0-4v-6m0-4v-6m0-4v-6m0-4v-6m0-4v-6m0-4v-6m0-4v-6m0-4v-6m0-4v-6m0-4v-6m0-4v-6m0-4v-6m0-4v-6m0-4v-6m0-4v-6m0-4v-6m0-4v-6m0-4v-6m0-4v-3h3" stroke="#d86613" stroke-width="2" fill="none"/><path d="M1072 300h56v56h-56v-56z" stroke="#fff" stroke-opacity="0" fill="#d86613"/><path d="M1091.68 323.73l-1.14 1.13 2.33 2.34H1080v1.6h12.87l-2.33 2.34 1.14 1.13 4.27-4.27-4.27-4.27zM1120 327.2h-12.87l2.33-2.34-1.14-1.13-4.27 4.27 4.27 4.27 1.14-1.13-2.33-2.34H1120v-1.6zM1099.2 310.63v12.87h1.6v-12.87l2.34 2.33 1.13-1.13-4.27-4.28-4.27 4.28 1.13 1.13 2.34-2.33zM1100.8 345.37V332.5h-1.6v12.87l-2.34-2.33-1.13 1.13 4.27 4.28 4.27-4.28-1.13-1.13-2.34 2.33z" stroke="#fff" stroke-opacity="0" fill="#fff"/><use xlink:href="#A" transform="matrix(1,0,0,1,980,371) translate(20.599999999999994 14.4)"/><use xlink:href="#B" transform="matrix(1,0,0,1,980,371) translate(63.55 14.4)"/><use xlink:href="#C" transform="matrix(1,0,0,1,980,371) translate(104.5 14.4)"/><use xlink:href="#D" transform="matrix(1,0,0,1,980,371) translate(181.4 14.4)"/><path d="M501 661.6h109V340h231.5" stroke="#000" stroke-width="2" fill="none"/><path d="M501.03 662.6h-1.1l.07-1-.04-1h1.07z"/><path d="M856.76 340l-14.26 4.64v-9.28z" stroke="#000" stroke-width="2"/><path d="M501 661.6h109V440h431.5" stroke="#000" stroke-width="2" fill="none"/><path d="M501.03 662.6h-1.1l.07-1-.04-1h1.07z"/><path d="M1056.76 440l-14.26 4.64v-9.28z" stroke="#000" stroke-width="2"/><path d="M501 661.6h109V900h431.5" stroke="#000" stroke-width="2" fill="none"/><path d="M501.03 662.6h-1.1l.07-1-.04-1h1.07z"/><path d="M1056.76 900l-14.26 4.64v-9.28z" stroke="#000" stroke-width="2"/><path d="M792.18 552.18h-64.36v-64.36h64.36zm-61.02-3.34h57.68v-57.68h-57.68z" stroke="#fff" stroke-opacity="0" fill="#d86613"/><path d="M737.02 480h3.33v9.48h-3.33V480zM747.47 480h3.33v9.48h-3.33V480zM757.93 480h3.34v9.48h-3.34V480zM768.4 480h3.33v9.48h-3.33V480zM778.87 480h3.33v9.48h-3.33V480zM737.02 550.52h3.33V560h-3.33v-9.48zM747.47 550.52h3.33V560h-3.33v-9.48zM757.93 550.52h3.34V560h-3.34v-9.48zM768.4 550.52h3.33V560h-3.33v-9.48zM778.87 550.52h3.33V560h-3.33v-9.48zM790.52 497.42H800v3.33h-9.48v-3.33zM790.52 507.87H800v3.33h-9.48v-3.33zM790.52 518.33H800v3.34h-9.48v-3.34zM790.52 528.8H800v3.33h-9.48v-3.33zM790.52 539.25H800v3.33h-9.48v-3.33zM720 497.42h9.48v3.33H720v-3.33zM720 507.87h9.48v3.33H720v-3.33zM720 518.33h9.48v3.34H720v-3.34zM720 528.8h9.48v3.33H720v-3.33zM720 539.25h9.48v3.33H720v-3.33z" stroke="#fff" stroke-opacity="0" fill="#d86613"/><g><use xlink:href="#E" transform="matrix(1,0,0,1,690,569) translate(10.049999999999997 14.4)"/><use xlink:href="#F" transform="matrix(1,0,0,1,690,569) translate(53 14.4)"/></g><path d="M1141 440h169v220h100v240h31.5" stroke="#000" stroke-width="2" fill="none"/><path d="M1141.03 441H1140v-2h1.03z"/><path d="M1456.76 900l-14.26 4.64v-9.28z" stroke="#000" stroke-width="2"/><path d="M1141 440h169v220h100V440h31.5" stroke="#000" stroke-width="2" fill="none"/><path d="M1141.03 441H1140v-2h1.03z"/><path d="M1456.76 440l-14.26 4.64v-9.28z" stroke="#000" stroke-width="2"/><path d="M1141 900h169V660h100V440h31.5" stroke="#000" stroke-width="2" fill="none"/><path d="M1141.03 901H1140v-2h1.03z"/><path d="M1456.76 440l-14.26 4.64v-9.28z" stroke="#000" stroke-width="2"/><path d="M941 340h369v320h100V440h31.5" stroke="#000" stroke-width="2" fill="none"/><path d="M941.03 341H940v-2h1.03z"/><path d="M1456.76 440l-14.26 4.64v-9.28z" stroke="#000" stroke-width="2"/><path d="M124.97 701.6H81.73c-.98 0-1.73-.8-1.73-1.68v-76.64c0-.88.75-1.68 1.73-1.68h43.24c.98 0 1.73.8 1.73 1.68v76.64c0 .88-.75 1.68-1.73 1.68zm-41.56-3.44h39.9v-73.12H83.4z" stroke="#fff" stroke-opacity="0" fill="#232f3e"/><path d="M88.12 629.58h30.44v3.4H88.12v-3.4zM88.12 637.57h30.44v3.4H88.12v-3.4zM88.12 645.53h30.44v3.4H88.12v-3.4zM88.12 653.5h30.44v3.42H88.12v-3.4z" stroke="#fff" stroke-opacity="0" fill="#232f3e"/><g><use xlink:href="#E" transform="matrix(1,0,0,1,50,710.5999999999999) translate(14.049999999999997 14.4)"/><use xlink:href="#G" transform="matrix(1,0,0,1,50,710.5999999999999) translate(57 14.4)"/><use xlink:href="#H" transform="matrix(1,0,0,1,50,710.5999999999999) translate(27.525 36)"/></g><defs><path fill="#147eba" d="M30-248c87 1 191-15 191 75 0 78-77 80-158 76V0H30v-248zm33 125c57 0 124 11 124-50 0-59-68-47-124-48v98" id="I"/><path fill="#147eba" d="M114-163C36-179 61-72 57 0H25l-1-190h30c1 12-1 29 2 39 6-27 23-49 58-41v29" id="J"/><path fill="#147eba" d="M24-231v-30h32v30H24zM24 0v-190h32V0H24" id="K"/><path fill="#147eba" d="M108 0H70L1-190h34L89-25l56-165h34" id="L"/><path fill="#147eba" d="M141-36C126-15 110 5 73 4 37 3 15-17 15-53c-1-64 63-63 125-63 3-35-9-54-41-54-24 1-41 7-42 31l-33-3c5-37 33-52 76-52 45 0 72 20 72 64v82c-1 20 7 32 28 27v20c-31 9-61-2-59-35zM48-53c0 20 12 33 32 33 41-3 63-29 60-74-43 2-92-5-92 41" id="M"/><path fill="#147eba" d="M59-47c-2 24 18 29 38 22v24C64 9 27 4 27-40v-127H5v-23h24l9-43h21v43h35v23H59v120" id="N"/><path fill="#147eba" d="M100-194c63 0 86 42 84 106H49c0 40 14 67 53 68 26 1 43-12 49-29l28 8c-11 28-37 45-77 45C44 4 14-33 15-96c1-61 26-98 85-98zm52 81c6-60-76-77-97-28-3 7-6 17-6 28h103" id="O"/><g id="a"><use transform="matrix(0.05,0,0,0.05,0,0)" xlink:href="#I"/><use transform="matrix(0.05,0,0,0.05,12,0)" xlink:href="#J"/><use transform="matrix(0.05,0,0,0.05,17.95,0)" xlink:href="#K"/><use transform="matrix(0.05,0,0,0.05,21.9,0)" xlink:href="#L"/><use transform="matrix(0.05,0,0,0.05,30.899999999999995,0)" xlink:href="#M"/><use transform="matrix(0.05,0,0,0.05,40.9,0)" xlink:href="#N"/><use transform="matrix(0.05,0,0,0.05,45.9,0)" xlink:href="#O"/></g><path fill="#147eba" d="M185-189c-5-48-123-54-124 2 14 75 158 14 163 119 3 78-121 87-175 55-17-10-28-26-33-46l33-7c5 56 141 63 141-1 0-78-155-14-162-118-5-82 145-84 179-34 5 7 8 16 11 25" id="P"/><path fill="#147eba" d="M84 4C-5 8 30-112 23-190h32v120c0 31 7 50 39 49 72-2 45-101 50-169h31l1 190h-30c-1-10 1-25-2-33-11 22-28 36-60 37" id="Q"/><path fill="#147eba" d="M115-194c53 0 69 39 70 98 0 66-23 100-70 100C84 3 66-7 56-30L54 0H23l1-261h32v101c10-23 28-34 59-34zm-8 174c40 0 45-34 45-75 0-40-5-75-45-74-42 0-51 32-51 76 0 43 10 73 51 73" id="R"/><path fill="#147eba" d="M117-194c89-4 53 116 60 194h-32v-121c0-31-8-49-39-48C34-167 62-67 57 0H25l-1-190h30c1 10-1 24 2 32 11-22 29-35 61-36" id="S"/><g id="b"><use transform="matrix(0.05,0,0,0.05,0,0)" xlink:href="#P"/><use transform="matrix(0.05,0,0,0.05,12,0)" xlink:href="#Q"/><use transform="matrix(0.05,0,0,0.05,22,0)" xlink:href="#R"/><use transform="matrix(0.05,0,0,0.05,32,0)" xlink:href="#S"/><use transform="matrix(0.05,0,0,0.05,42,0)" xlink:href="#O"/><use transform="matrix(0.05,0,0,0.05,52,0)" xlink:href="#N"/></g><path fill="#232f3e" d="M205 0l-28-72H64L36 0H1l101-248h38L239 0h-34zm-38-99l-47-123c-12 45-31 82-46 123h93" id="T"/><path fill="#232f3e" d="M266 0h-40l-56-210L115 0H75L2-248h35L96-30l15-64 43-154h32l59 218 59-218h35" id="U"/><path fill="#232f3e" d="M185-189c-5-48-123-54-124 2 14 75 158 14 163 119 3 78-121 87-175 55-17-10-28-26-33-46l33-7c5 56 141 63 141-1 0-78-155-14-162-118-5-82 145-84 179-34 5 7 8 16 11 25" id="V"/><g id="c"><use transform="matrix(0.05,0,0,0.05,0,0)" xlink:href="#T"/><use transform="matrix(0.05,0,0,0.05,11.35,0)" xlink:href="#U"/><use transform="matrix(0.05,0,0,0.05,28.299999999999997,0)" xlink:href="#V"/></g><path fill="#232f3e" d="M212-179c-10-28-35-45-73-45-59 0-87 40-87 99 0 60 29 101 89 101 43 0 62-24 78-52l27 14C228-24 195 4 139 4 59 4 22-46 18-125c-6-104 99-153 187-111 19 9 31 26 39 46" id="W"/><path fill="#232f3e" d="M24 0v-261h32V0H24" id="X"/><path fill="#232f3e" d="M100-194c62-1 85 37 85 99 1 63-27 99-86 99S16-35 15-95c0-66 28-99 85-99zM99-20c44 1 53-31 53-75 0-43-8-75-51-75s-53 32-53 75 10 74 51 75" id="Y"/><path fill="#232f3e" d="M84 4C-5 8 30-112 23-190h32v120c0 31 7 50 39 49 72-2 45-101 50-169h31l1 190h-30c-1-10 1-25-2-33-11 22-28 36-60 37" id="Z"/><path fill="#232f3e" d="M85-194c31 0 48 13 60 33l-1-100h32l1 261h-30c-2-10 0-23-3-31C134-8 116 4 85 4 32 4 16-35 15-94c0-66 23-100 70-100zm9 24c-40 0-46 34-46 75 0 40 6 74 45 74 42 0 51-32 51-76 0-42-9-74-50-73" id="aa"/><g id="d"><use transform="matrix(0.05,0,0,0.05,0,0)" xlink:href="#W"/><use transform="matrix(0.05,0,0,0.05,12.950000000000001,0)" xlink:href="#X"/><use transform="matrix(0.05,0,0,0.05,16.900000000000002,0)" xlink:href="#Y"/><use transform="matrix(0.05,0,0,0.05,26.900000000000002,0)" xlink:href="#Z"/><use transform="matrix(0.05,0,0,0.05,36.900000000000006,0)" xlink:href="#aa"/></g><path fill="#147eba" d="M233-177c-1 41-23 64-60 70L243 0h-38l-65-103H63V0H30v-248c88 3 205-21 203 71zM63-129c60-2 137 13 137-47 0-61-80-42-137-45v92" id="ab"/><path fill="#147eba" d="M177-190C167-65 218 103 67 71c-23-6-38-20-44-43l32-5c15 47 100 32 89-28v-30C133-14 115 1 83 1 29 1 15-40 15-95c0-56 16-97 71-98 29-1 48 16 59 35 1-10 0-23 2-32h30zM94-22c36 0 50-32 50-73 0-42-14-75-50-75-39 0-46 34-46 75s6 73 46 73" id="ac"/><path fill="#147eba" d="M100-194c62-1 85 37 85 99 1 63-27 99-86 99S16-35 15-95c0-66 28-99 85-99zM99-20c44 1 53-31 53-75 0-43-8-75-51-75s-53 32-53 75 10 74 51 75" id="ad"/><g id="e"><use transform="matrix(0.05,0,0,0.05,0,0)" xlink:href="#ab"/><use transform="matrix(0.05,0,0,0.05,12.950000000000001,0)" xlink:href="#O"/><use transform="matrix(0.05,0,0,0.05,22.950000000000003,0)" xlink:href="#ac"/><use transform="matrix(0.05,0,0,0.05,32.95,0)" xlink:href="#K"/><use transform="matrix(0.05,0,0,0.05,36.900000000000006,0)" xlink:href="#ad"/><use transform="matrix(0.05,0,0,0.05,46.900000000000006,0)" xlink:href="#S"/></g><path d="M240 0l2-218c-23 76-54 145-80 218h-23L58-218 59 0H30v-248h44l77 211c21-75 51-140 76-211h43V0h-30" id="ae"/><path d="M84 4C-5 8 30-112 23-190h32v120c0 31 7 50 39 49 72-2 45-101 50-169h31l1 190h-30c-1-10 1-25-2-33-11 22-28 36-60 37" id="af"/><path d="M24 0v-261h32V0H24" id="ag"/><path d="M59-47c-2 24 18 29 38 22v24C64 9 27 4 27-40v-127H5v-23h24l9-43h21v43h35v23H59v120" id="ah"/><path d="M24-231v-30h32v30H24zM24 0v-190h32V0H24" id="ai"/><path d="M205 0l-28-72H64L36 0H1l101-248h38L239 0h-34zm-38-99l-47-123c-12 45-31 82-46 123h93" id="aj"/><path d="M209 0H11v-25l151-195H24v-28h176v25L50-27h159V0" id="ak"/><g id="f"><use transform="matrix(0.05,0,0,0.05,0,0)" xlink:href="#ae"/><use transform="matrix(0.05,0,0,0.05,14.950000000000001,0)" xlink:href="#af"/><use transform="matrix(0.05,0,0,0.05,24.950000000000003,0)" xlink:href="#ag"/><use transform="matrix(0.05,0,0,0.05,28.900000000000002,0)" xlink:href="#ah"/><use transform="matrix(0.05,0,0,0.05,33.900000000000006,0)" xlink:href="#ai"/><use transform="matrix(0.05,0,0,0.05,37.85000000000001,0)" xlink:href="#aj"/><use transform="matrix(0.05,0,0,0.05,49.85000000000001,0)" xlink:href="#ak"/></g><path d="M233-177c-1 41-23 64-60 70L243 0h-38l-65-103H63V0H30v-248c88 3 205-21 203 71zM63-129c60-2 137 13 137-47 0-61-80-42-137-45v92" id="al"/><path d="M30-248c118-7 216 8 213 122C240-48 200 0 122 0H30v-248zM63-27c89 8 146-16 146-99s-60-101-146-95v194" id="am"/><path d="M185-189c-5-48-123-54-124 2 14 75 158 14 163 119 3 78-121 87-175 55-17-10-28-26-33-46l33-7c5 56 141 63 141-1 0-78-155-14-162-118-5-82 145-84 179-34 5 7 8 16 11 25" id="an"/><g id="g"><use transform="matrix(0.05,0,0,0.05,0,0)" xlink:href="#al"/><use transform="matrix(0.05,0,0,0.05,12.950000000000001,0)" xlink:href="#am"/><use transform="matrix(0.05,0,0,0.05,25.900000000000002,0)" xlink:href="#an"/></g><path d="M30-248c87 1 191-15 191 75 0 78-77 80-158 76V0H30v-248zm33 125c57 0 124 11 124-50 0-59-68-47-124-48v98" id="ao"/><path d="M100-194c62-1 85 37 85 99 1 63-27 99-86 99S16-35 15-95c0-66 28-99 85-99zM99-20c44 1 53-31 53-75 0-43-8-75-51-75s-53 32-53 75 10 74 51 75" id="ap"/><path d="M135-143c-3-34-86-38-87 0 15 53 115 12 119 90S17 21 10-45l28-5c4 36 97 45 98 0-10-56-113-15-118-90-4-57 82-63 122-42 12 7 21 19 24 35" id="aq"/><path d="M177-190C167-65 218 103 67 71c-23-6-38-20-44-43l32-5c15 47 100 32 89-28v-30C133-14 115 1 83 1 29 1 15-40 15-95c0-56 16-97 71-98 29-1 48 16 59 35 1-10 0-23 2-32h30zM94-22c36 0 50-32 50-73 0-42-14-75-50-75-39 0-46 34-46 75s6 73 46 73" id="ar"/><path d="M114-163C36-179 61-72 57 0H25l-1-190h30c1 12-1 29 2 39 6-27 23-49 58-41v29" id="as"/><path d="M100-194c63 0 86 42 84 106H49c0 40 14 67 53 68 26 1 43-12 49-29l28 8c-11 28-37 45-77 45C44 4 14-33 15-96c1-61 26-98 85-98zm52 81c6-60-76-77-97-28-3 7-6 17-6 28h103" id="at"/><path d="M140-251c81 0 123 46 123 126C263-53 228-8 163 1c7 30 30 48 69 40v23c-55 16-95-15-103-61C56-3 17-48 17-125c0-80 42-126 123-126zm0 227c63 0 89-41 89-101s-29-99-89-99c-61 0-89 39-89 99S79-25 140-24" id="au"/><path d="M30 0v-248h33v221h125V0H30" id="av"/><g id="h"><use transform="matrix(0.05,0,0,0.05,0,0)" xlink:href="#ao"/><use transform="matrix(0.05,0,0,0.05,12,0)" xlink:href="#ap"/><use transform="matrix(0.05,0,0,0.05,22,0)" xlink:href="#aq"/><use transform="matrix(0.05,0,0,0.05,31,0)" xlink:href="#ah"/><use transform="matrix(0.05,0,0,0.05,36,0)" xlink:href="#ar"/><use transform="matrix(0.05,0,0,0.05,46,0)" xlink:href="#as"/><use transform="matrix(0.05,0,0,0.05,51.95,0)" xlink:href="#at"/><use transform="matrix(0.05,0,0,0.05,61.95,0)" xlink:href="#an"/><use transform="matrix(0.05,0,0,0.05,73.95,0)" xlink:href="#au"/><use transform="matrix(0.05,0,0,0.05,87.95,0)" xlink:href="#av"/></g><path d="M30 0v-248h187v28H63v79h144v27H63v87h162V0H30" id="aw"/><path d="M141-36C126-15 110 5 73 4 37 3 15-17 15-53c-1-64 63-63 125-63 3-35-9-54-41-54-24 1-41 7-42 31l-33-3c5-37 33-52 76-52 45 0 72 20 72 64v82c-1 20 7 32 28 27v20c-31 9-61-2-59-35zM48-53c0 20 12 33 32 33 41-3 63-29 60-74-43 2-92-5-92 41" id="ax"/><path d="M96-169c-40 0-48 33-48 73s9 75 48 75c24 0 41-14 43-38l32 2c-6 37-31 61-74 61-59 0-76-41-82-99-10-93 101-131 147-64 4 7 5 14 7 22l-32 3c-4-21-16-35-41-35" id="ay"/><path d="M106-169C34-169 62-67 57 0H25v-261h32l-1 103c12-21 28-36 61-36 89 0 53 116 60 194h-32v-121c2-32-8-49-39-48" id="az"/><g id="j"><use transform="matrix(0.05,0,0,0.05,0,0)" xlink:href="#aw"/><use transform="matrix(0.05,0,0,0.05,12,0)" xlink:href="#ag"/><use transform="matrix(0.05,0,0,0.05,15.949999999999998,0)" xlink:href="#ax"/><use transform="matrix(0.05,0,0,0.05,25.950000000000003,0)" xlink:href="#aq"/><use transform="matrix(0.05,0,0,0.05,34.95,0)" xlink:href="#ah"/><use transform="matrix(0.05,0,0,0.05,39.95,0)" xlink:href="#ai"/><use transform="matrix(0.05,0,0,0.05,43.900000000000006,0)" xlink:href="#ay"/><use transform="matrix(0.05,0,0,0.05,52.900000000000006,0)" xlink:href="#an"/><use transform="matrix(0.05,0,0,0.05,64.9,0)" xlink:href="#at"/><use transform="matrix(0.05,0,0,0.05,74.9,0)" xlink:href="#ax"/><use transform="matrix(0.05,0,0,0.05,84.9,0)" xlink:href="#as"/><use transform="matrix(0.05,0,0,0.05,90.85000000000001,0)" xlink:href="#ay"/><use transform="matrix(0.05,0,0,0.05,99.85000000000001,0)" xlink:href="#az"/></g><path d="M108 0H70L1-190h34L89-25l56-165h34" id="aA"/><g id="k"><use transform="matrix(0.05,0,0,0.05,0,0)" xlink:href="#an"/><use transform="matrix(0.05,0,0,0.05,12,0)" xlink:href="#at"/><use transform="matrix(0.05,0,0,0.05,22,0)" xlink:href="#as"/><use transform="matrix(0.05,0,0,0.05,27.950000000000003,0)" xlink:href="#aA"/><use transform="matrix(0.05,0,0,0.05,36.95,0)" xlink:href="#ai"/><use transform="matrix(0.05,0,0,0.05,40.900000000000006,0)" xlink:href="#ay"/><use transform="matrix(0.05,0,0,0.05,49.900000000000006,0)" xlink:href="#at"/></g><path d="M33 0v-248h34V0H33" id="aB"/><path d="M117-194c89-4 53 116 60 194h-32v-121c0-31-8-49-39-48C34-167 62-67 57 0H25l-1-190h30c1 10-1 24 2 32 11-22 29-35 61-36" id="aC"/><g id="l"><use transform="matrix(0.05,0,0,0.05,0,0)" xlink:href="#aB"/><use transform="matrix(0.05,0,0,0.05,5,0)" xlink:href="#aC"/><use transform="matrix(0.05,0,0,0.05,15,0)" xlink:href="#ah"/><use transform="matrix(0.05,0,0,0.05,20,0)" xlink:href="#at"/><use transform="matrix(0.05,0,0,0.05,30,0)" xlink:href="#as"/><use transform="matrix(0.05,0,0,0.05,35.95,0)" xlink:href="#aC"/><use transform="matrix(0.05,0,0,0.05,45.95,0)" xlink:href="#at"/><use transform="matrix(0.05,0,0,0.05,55.95,0)" xlink:href="#ah"/></g><path d="M143 4C61 4 22-44 18-125c-5-107 100-154 193-111 17 8 29 25 37 43l-32 9c-13-25-37-40-76-40-61 0-88 39-88 99 0 61 29 100 91 101 35 0 62-11 79-27v-45h-74v-28h105v86C228-13 192 4 143 4" id="aD"/><path d="M206 0h-36l-40-164L89 0H53L-1-190h32L70-26l43-164h34l41 164 42-164h31" id="aE"/><path d="M179-190L93 31C79 59 56 82 12 73V49c39 6 53-20 64-50L1-190h34L92-34l54-156h33" id="aF"/><g id="m"><use transform="matrix(0.05,0,0,0.05,0,0)" xlink:href="#aD"/><use transform="matrix(0.05,0,0,0.05,14,0)" xlink:href="#ax"/><use transform="matrix(0.05,0,0,0.05,24,0)" xlink:href="#ah"/><use transform="matrix(0.05,0,0,0.05,29,0)" xlink:href="#at"/><use transform="matrix(0.05,0,0,0.05,39,0)" xlink:href="#aE"/><use transform="matrix(0.05,0,0,0.05,51.95,0)" xlink:href="#ax"/><use transform="matrix(0.05,0,0,0.05,61.95,0)" xlink:href="#aF"/></g><path d="M115-194c55 1 70 41 70 98S169 2 115 4C84 4 66-9 55-30l1 105H24l-1-265h31l2 30c10-21 28-34 59-34zm-8 174c40 0 45-34 45-75s-6-73-45-74c-42 0-51 32-51 76 0 43 10 73 51 73" id="aG"/><g id="n"><use transform="matrix(0.05,0,0,0.05,0,0)" xlink:href="#aj"/><use transform="matrix(0.05,0,0,0.05,12,0)" xlink:href="#aG"/><use transform="matrix(0.05,0,0,0.05,22,0)" xlink:href="#aG"/><use transform="matrix(0.05,0,0,0.05,32,0)" xlink:href="#ag"/><use transform="matrix(0.05,0,0,0.05,35.95,0)" xlink:href="#ai"/><use transform="matrix(0.05,0,0,0.05,39.900000000000006,0)" xlink:href="#ay"/><use transform="matrix(0.05,0,0,0.05,48.900000000000006,0)" xlink:href="#ax"/><use transform="matrix(0.05,0,0,0.05,58.900000000000006,0)" xlink:href="#ah"/><use transform="matrix(0.05,0,0,0.05,63.900000000000006,0)" xlink:href="#ai"/><use transform="matrix(0.05,0,0,0.05,67.85000000000001,0)" xlink:href="#ap"/><use transform="matrix(0.05,0,0,0.05,77.85000000000001,0)" xlink:href="#aC"/></g><path d="M85-194c31 0 48 13 60 33l-1-100h32l1 261h-30c-2-10 0-23-3-31C134-8 116 4 85 4 32 4 16-35 15-94c0-66 23-100 70-100zm9 24c-40 0-46 34-46 75 0 40 6 74 45 74 42 0 51-32 51-76 0-42-9-74-50-73" id="aH"/><g id="o"><use transform="matrix(0.05,0,0,0.05,0,0)" xlink:href="#av"/><use transform="matrix(0.05,0,0,0.05,10,0)" xlink:href="#ap"/><use transform="matrix(0.05,0,0,0.05,20,0)" xlink:href="#ax"/><use transform="matrix(0.05,0,0,0.05,30,0)" xlink:href="#aH"/></g><path d="M160-131c35 5 61 23 61 61C221 17 115-2 30 0v-248c76 3 177-17 177 60 0 33-19 50-47 57zm-97-11c50-1 110 9 110-42 0-47-63-36-110-37v79zm0 115c55-2 124 14 124-45 0-56-70-42-124-44v89" id="aI"/><g id="p"><use transform="matrix(0.05,0,0,0.05,0,0)" xlink:href="#aI"/><use transform="matrix(0.05,0,0,0.05,12,0)" xlink:href="#ax"/><use transform="matrix(0.05,0,0,0.05,22,0)" xlink:href="#ag"/><use transform="matrix(0.05,0,0,0.05,25.950000000000003,0)" xlink:href="#ax"/><use transform="matrix(0.05,0,0,0.05,35.95,0)" xlink:href="#aC"/><use transform="matrix(0.05,0,0,0.05,45.95,0)" xlink:href="#ay"/><use transform="matrix(0.05,0,0,0.05,54.95,0)" xlink:href="#at"/><use transform="matrix(0.05,0,0,0.05,64.95,0)" xlink:href="#as"/></g><path fill="#248814" d="M137 0h-34L2-248h35l83 218 83-218h36" id="aJ"/><path fill="#248814" d="M24-231v-30h32v30H24zM24 0v-190h32V0H24" id="aK"/><path fill="#248814" d="M114-163C36-179 61-72 57 0H25l-1-190h30c1 12-1 29 2 39 6-27 23-49 58-41v29" id="aL"/><path fill="#248814" d="M59-47c-2 24 18 29 38 22v24C64 9 27 4 27-40v-127H5v-23h24l9-43h21v43h35v23H59v120" id="aM"/><path fill="#248814" d="M84 4C-5 8 30-112 23-190h32v120c0 31 7 50 39 49 72-2 45-101 50-169h31l1 190h-30c-1-10 1-25-2-33-11 22-28 36-60 37" id="aN"/><path fill="#248814" d="M141-36C126-15 110 5 73 4 37 3 15-17 15-53c-1-64 63-63 125-63 3-35-9-54-41-54-24 1-41 7-42 31l-33-3c5-37 33-52 76-52 45 0 72 20 72 64v82c-1 20 7 32 28 27v20c-31 9-61-2-59-35zM48-53c0 20 12 33 32 33 41-3 63-29 60-74-43 2-92-5-92 41" id="aO"/><path fill="#248814" d="M24 0v-261h32V0H24" id="aP"/><g id="q"><use transform="matrix(0.05,0,0,0.05,0,0)" xlink:href="#aJ"/><use transform="matrix(0.05,0,0,0.05,11.65,0)" xlink:href="#aK"/><use transform="matrix(0.05,0,0,0.05,15.600000000000001,0)" xlink:href="#aL"/><use transform="matrix(0.05,0,0,0.05,21.55,0)" xlink:href="#aM"/><use transform="matrix(0.05,0,0,0.05,26.55,0)" xlink:href="#aN"/><use transform="matrix(0.05,0,0,0.05,36.55,0)" xlink:href="#aO"/><use transform="matrix(0.05,0,0,0.05,46.55,0)" xlink:href="#aP"/></g><path fill="#248814" d="M30-248c87 1 191-15 191 75 0 78-77 80-158 76V0H30v-248zm33 125c57 0 124 11 124-50 0-59-68-47-124-48v98" id="aQ"/><path fill="#248814" d="M108 0H70L1-190h34L89-25l56-165h34" id="aR"/><path fill="#248814" d="M100-194c63 0 86 42 84 106H49c0 40 14 67 53 68 26 1 43-12 49-29l28 8c-11 28-37 45-77 45C44 4 14-33 15-96c1-61 26-98 85-98zm52 81c6-60-76-77-97-28-3 7-6 17-6 28h103" id="aS"/><g id="r"><use transform="matrix(0.05,0,0,0.05,0,0)" xlink:href="#aQ"/><use transform="matrix(0.05,0,0,0.05,12,0)" xlink:href="#aL"/><use transform="matrix(0.05,0,0,0.05,17.95,0)" xlink:href="#aK"/><use transform="matrix(0.05,0,0,0.05,21.9,0)" xlink:href="#aR"/><use transform="matrix(0.05,0,0,0.05,30.899999999999995,0)" xlink:href="#aO"/><use transform="matrix(0.05,0,0,0.05,40.9,0)" xlink:href="#aM"/><use transform="matrix(0.05,0,0,0.05,45.9,0)" xlink:href="#aS"/></g><path fill="#248814" d="M212-179c-10-28-35-45-73-45-59 0-87 40-87 99 0 60 29 101 89 101 43 0 62-24 78-52l27 14C228-24 195 4 139 4 59 4 22-46 18-125c-6-104 99-153 187-111 19 9 31 26 39 46" id="aT"/><path fill="#248814" d="M100-194c62-1 85 37 85 99 1 63-27 99-86 99S16-35 15-95c0-66 28-99 85-99zM99-20c44 1 53-31 53-75 0-43-8-75-51-75s-53 32-53 75 10 74 51 75" id="aU"/><path fill="#248814" d="M85-194c31 0 48 13 60 33l-1-100h32l1 261h-30c-2-10 0-23-3-31C134-8 116 4 85 4 32 4 16-35 15-94c0-66 23-100 70-100zm9 24c-40 0-46 34-46 75 0 40 6 74 45 74 42 0 51-32 51-76 0-42-9-74-50-73" id="aV"/><g id="s"><use transform="matrix(0.05,0,0,0.05,0,0)" xlink:href="#aT"/><use transform="matrix(0.05,0,0,0.05,12.950000000000001,0)" xlink:href="#aP"/><use transform="matrix(0.05,0,0,0.05,16.900000000000002,0)" xlink:href="#aU"/><use transform="matrix(0.05,0,0,0.05,26.900000000000002,0)" xlink:href="#aN"/><use transform="matrix(0.05,0,0,0.05,36.900000000000006,0)" xlink:href="#aV"/></g><path fill="#147eba" d="M205 0l-28-72H64L36 0H1l101-248h38L239 0h-34zm-38-99l-47-123c-12 45-31 82-46 123h93" id="aW"/><path fill="#147eba" d="M24 0v-261h32V0H24" id="aX"/><path fill="#147eba" d="M179-190L93 31C79 59 56 82 12 73V49c39 6 53-20 64-50L1-190h34L92-34l54-156h33" id="aY"/><g id="t"><use transform="matrix(0.05,0,0,0.05,0,0)" xlink:href="#aW"/><use transform="matrix(0.05,0,0,0.05,11.65,0)" xlink:href="#L"/><use transform="matrix(0.05,0,0,0.05,20.65,0)" xlink:href="#M"/><use transform="matrix(0.05,0,0,0.05,30.649999999999995,0)" xlink:href="#K"/><use transform="matrix(0.05,0,0,0.05,34.6,0)" xlink:href="#aX"/><use transform="matrix(0.05,0,0,0.05,38.550000000000004,0)" xlink:href="#M"/><use transform="matrix(0.05,0,0,0.05,48.550000000000004,0)" xlink:href="#R"/><use transform="matrix(0.05,0,0,0.05,58.550000000000004,0)" xlink:href="#K"/><use transform="matrix(0.05,0,0,0.05,62.5,0)" xlink:href="#aX"/><use transform="matrix(0.05,0,0,0.05,66.45,0)" xlink:href="#K"/><use transform="matrix(0.05,0,0,0.05,70.4,0)" xlink:href="#N"/><use transform="matrix(0.05,0,0,0.05,75.4,0)" xlink:href="#aY"/></g><path fill="#147eba" d="M209 0H11v-25l151-195H24v-28h176v25L50-27h159V0" id="aZ"/><g id="u"><use transform="matrix(0.05,0,0,0.05,0,0)" xlink:href="#aZ"/><use transform="matrix(0.05,0,0,0.05,10.950000000000001,0)" xlink:href="#ad"/><use transform="matrix(0.05,0,0,0.05,20.950000000000003,0)" xlink:href="#S"/><use transform="matrix(0.05,0,0,0.05,30.950000000000003,0)" xlink:href="#O"/></g><g id="v"><use transform="matrix(0.05,0,0,0.05,0,0)" xlink:href="#aj"/><use transform="matrix(0.05,0,0,0.05,12,0)" xlink:href="#af"/><use transform="matrix(0.05,0,0,0.05,22,0)" xlink:href="#ah"/><use transform="matrix(0.05,0,0,0.05,27,0)" xlink:href="#ap"/><use transform="matrix(0.05,0,0,0.05,37,0)" xlink:href="#aq"/><use transform="matrix(0.05,0,0,0.05,46,0)" xlink:href="#ay"/><use transform="matrix(0.05,0,0,0.05,55,0)" xlink:href="#ax"/><use transform="matrix(0.05,0,0,0.05,65,0)" xlink:href="#ag"/><use transform="matrix(0.05,0,0,0.05,68.95,0)" xlink:href="#at"/><use transform="matrix(0.05,0,0,0.05,78.95,0)" xlink:href="#aH"/></g><path d="M63-220v92h138v28H63V0H30v-248h175v28H63" id="ba"/><path d="M87 75C49 33 22-17 22-94c0-76 28-126 65-167h31c-38 41-64 92-64 168S80 34 118 75H87" id="bb"/><path d="M33-261c38 41 65 92 65 168S71 34 33 75H2C39 34 66-17 66-93S39-220 2-261h31" id="bc"/><g id="w"><use transform="matrix(0.05,0,0,0.05,0,0)" xlink:href="#ba"/><use transform="matrix(0.05,0,0,0.05,10.950000000000001,0)" xlink:href="#as"/><use transform="matrix(0.05,0,0,0.05,16.900000000000002,0)" xlink:href="#ap"/><use transform="matrix(0.05,0,0,0.05,26.900000000000002,0)" xlink:href="#aC"/><use transform="matrix(0.05,0,0,0.05,36.900000000000006,0)" xlink:href="#ah"/><use transform="matrix(0.05,0,0,0.05,41.900000000000006,0)" xlink:href="#at"/><use transform="matrix(0.05,0,0,0.05,51.900000000000006,0)" xlink:href="#aC"/><use transform="matrix(0.05,0,0,0.05,61.900000000000006,0)" xlink:href="#aH"/><use transform="matrix(0.05,0,0,0.05,71.9,0)" xlink:href="#bb"/><use transform="matrix(0.05,0,0,0.05,77.85000000000001,0)" xlink:href="#aq"/><use transform="matrix(0.05,0,0,0.05,86.85000000000001,0)" xlink:href="#bc"/></g><path d="M210-169c-67 3-38 105-44 169h-31v-121c0-29-5-50-35-48C34-165 62-65 56 0H25l-1-190h30c1 10-1 24 2 32 10-44 99-50 107 0 11-21 27-35 58-36 85-2 47 119 55 194h-31v-121c0-29-5-49-35-48" id="bd"/><path d="M143 0L79-87 56-68V0H24v-261h32v163l83-92h37l-77 82L181 0h-38" id="be"/><g id="x"><use transform="matrix(0.05,0,0,0.05,0,0)" xlink:href="#an"/><use transform="matrix(0.05,0,0,0.05,12,0)" xlink:href="#af"/><use transform="matrix(0.05,0,0,0.05,22,0)" xlink:href="#aG"/><use transform="matrix(0.05,0,0,0.05,32,0)" xlink:href="#at"/><use transform="matrix(0.05,0,0,0.05,42,0)" xlink:href="#as"/><use transform="matrix(0.05,0,0,0.05,47.95,0)" xlink:href="#bd"/><use transform="matrix(0.05,0,0,0.05,62.900000000000006,0)" xlink:href="#ax"/><use transform="matrix(0.05,0,0,0.05,72.9,0)" xlink:href="#as"/><use transform="matrix(0.05,0,0,0.05,78.85000000000001,0)" xlink:href="#be"/><use transform="matrix(0.05,0,0,0.05,87.85000000000001,0)" xlink:href="#at"/><use transform="matrix(0.05,0,0,0.05,97.85000000000001,0)" xlink:href="#ah"/></g><g id="y"><use transform="matrix(0.05,0,0,0.05,0,0)" xlink:href="#aI"/><use transform="matrix(0.05,0,0,0.05,12,0)" xlink:href="#ap"/><use transform="matrix(0.05,0,0,0.05,22,0)" xlink:href="#ap"/><use transform="matrix(0.05,0,0,0.05,32,0)" xlink:href="#ah"/><use transform="matrix(0.05,0,0,0.05,37,0)" xlink:href="#aq"/><use transform="matrix(0.05,0,0,0.05,46,0)" xlink:href="#ah"/><use transform="matrix(0.05,0,0,0.05,51,0)" xlink:href="#as"/><use transform="matrix(0.05,0,0,0.05,56.95,0)" xlink:href="#ax"/><use transform="matrix(0.05,0,0,0.05,66.95,0)" xlink:href="#aG"/></g><g id="z"><use transform="matrix(0.05,0,0,0.05,0,0)" xlink:href="#ba"/><use transform="matrix(0.05,0,0,0.05,10.950000000000001,0)" xlink:href="#as"/><use transform="matrix(0.05,0,0,0.05,16.900000000000002,0)" xlink:href="#ap"/><use transform="matrix(0.05,0,0,0.05,26.900000000000002,0)" xlink:href="#aC"/><use transform="matrix(0.05,0,0,0.05,36.900000000000006,0)" xlink:href="#ah"/><use transform="matrix(0.05,0,0,0.05,41.900000000000006,0)" xlink:href="#at"/><use transform="matrix(0.05,0,0,0.05,51.900000000000006,0)" xlink:href="#aC"/><use transform="matrix(0.05,0,0,0.05,61.900000000000006,0)" xlink:href="#aH"/></g><path fill="#d86613" d="M212-179c-10-28-35-45-73-45-59 0-87 40-87 99 0 60 29 101 89 101 43 0 62-24 78-52l27 14C228-24 195 4 139 4 59 4 22-46 18-125c-6-104 99-153 187-111 19 9 31 26 39 46" id="bf"/><path fill="#d86613" d="M106-169C34-169 62-67 57 0H25v-261h32l-1 103c12-21 28-36 61-36 89 0 53 116 60 194h-32v-121c2-32-8-49-39-48" id="bg"/><path fill="#d86613" d="M100-194c63 0 86 42 84 106H49c0 40 14 67 53 68 26 1 43-12 49-29l28 8c-11 28-37 45-77 45C44 4 14-33 15-96c1-61 26-98 85-98zm52 81c6-60-76-77-97-28-3 7-6 17-6 28h103" id="bh"/><path fill="#d86613" d="M101-234c-31-9-42 10-38 44h38v23H63V0H32v-167H5v-23h27c-7-52 17-82 69-68v24" id="bi"/><g id="A"><use transform="matrix(0.05,0,0,0.05,0,0)" xlink:href="#bf"/><use transform="matrix(0.05,0,0,0.05,12.950000000000001,0)" xlink:href="#bg"/><use transform="matrix(0.05,0,0,0.05,22.950000000000003,0)" xlink:href="#bh"/><use transform="matrix(0.05,0,0,0.05,32.95,0)" xlink:href="#bi"/></g><path fill="#d86613" d="M33 0v-248h34V0H33" id="bj"/><path fill="#d86613" d="M117-194c89-4 53 116 60 194h-32v-121c0-31-8-49-39-48C34-167 62-67 57 0H25l-1-190h30c1 10-1 24 2 32 11-22 29-35 61-36" id="bk"/><path fill="#d86613" d="M114-163C36-179 61-72 57 0H25l-1-190h30c1 12-1 29 2 39 6-27 23-49 58-41v29" id="bl"/><path fill="#d86613" d="M141-36C126-15 110 5 73 4 37 3 15-17 15-53c-1-64 63-63 125-63 3-35-9-54-41-54-24 1-41 7-42 31l-33-3c5-37 33-52 76-52 45 0 72 20 72 64v82c-1 20 7 32 28 27v20c-31 9-61-2-59-35zM48-53c0 20 12 33 32 33 41-3 63-29 60-74-43 2-92-5-92 41" id="bm"/><g id="B"><use transform="matrix(0.05,0,0,0.05,0,0)" xlink:href="#bj"/><use transform="matrix(0.05,0,0,0.05,5,0)" xlink:href="#bk"/><use transform="matrix(0.05,0,0,0.05,15,0)" xlink:href="#bi"/><use transform="matrix(0.05,0,0,0.05,20,0)" xlink:href="#bl"/><use transform="matrix(0.05,0,0,0.05,25.950000000000003,0)" xlink:href="#bm"/></g><path fill="#d86613" d="M63-220v92h138v28H63V0H30v-248h175v28H63" id="bn"/><path fill="#d86613" d="M100-194c62-1 85 37 85 99 1 63-27 99-86 99S16-35 15-95c0-66 28-99 85-99zM99-20c44 1 53-31 53-75 0-43-8-75-51-75s-53 32-53 75 10 74 51 75" id="bo"/><path fill="#d86613" d="M59-47c-2 24 18 29 38 22v24C64 9 27 4 27-40v-127H5v-23h24l9-43h21v43h35v23H59v120" id="bp"/><path fill="#d86613" d="M85-194c31 0 48 13 60 33l-1-100h32l1 261h-30c-2-10 0-23-3-31C134-8 116 4 85 4 32 4 16-35 15-94c0-66 23-100 70-100zm9 24c-40 0-46 34-46 75 0 40 6 74 45 74 42 0 51-32 51-76 0-42-9-74-50-73" id="bq"/><g id="C"><use transform="matrix(0.05,0,0,0.05,0,0)" xlink:href="#bn"/><use transform="matrix(0.05,0,0,0.05,10.950000000000001,0)" xlink:href="#bl"/><use transform="matrix(0.05,0,0,0.05,16.900000000000002,0)" xlink:href="#bo"/><use transform="matrix(0.05,0,0,0.05,26.900000000000002,0)" xlink:href="#bk"/><use transform="matrix(0.05,0,0,0.05,36.900000000000006,0)" xlink:href="#bp"/><use transform="matrix(0.05,0,0,0.05,41.900000000000006,0)" xlink:href="#bh"/><use transform="matrix(0.05,0,0,0.05,51.900000000000006,0)" xlink:href="#bk"/><use transform="matrix(0.05,0,0,0.05,61.900000000000006,0)" xlink:href="#bq"/></g><path fill="#d86613" d="M205 0l-28-72H64L36 0H1l101-248h38L239 0h-34zm-38-99l-47-123c-12 45-31 82-46 123h93" id="br"/><path fill="#d86613" d="M185-189c-5-48-123-54-124 2 14 75 158 14 163 119 3 78-121 87-175 55-17-10-28-26-33-46l33-7c5 56 141 63 141-1 0-78-155-14-162-118-5-82 145-84 179-34 5 7 8 16 11 25" id="bs"/><path fill="#d86613" d="M143 4C61 4 22-44 18-125c-5-107 100-154 193-111 17 8 29 25 37 43l-32 9c-13-25-37-40-76-40-61 0-88 39-88 99 0 61 29 100 91 101 35 0 62-11 79-27v-45h-74v-28h105v86C228-13 192 4 143 4" id="bt"/><g id="D"><use transform="matrix(0.05,0,0,0.05,0,0)" xlink:href="#br"/><use transform="matrix(0.05,0,0,0.05,12,0)" xlink:href="#bs"/><use transform="matrix(0.05,0,0,0.05,24,0)" xlink:href="#bt"/></g><path d="M212-179c-10-28-35-45-73-45-59 0-87 40-87 99 0 60 29 101 89 101 43 0 62-24 78-52l27 14C228-24 195 4 139 4 59 4 22-46 18-125c-6-104 99-153 187-111 19 9 31 26 39 46" id="bu"/><path d="M101-234c-31-9-42 10-38 44h38v23H63V0H32v-167H5v-23h27c-7-52 17-82 69-68v24" id="bv"/><g id="E"><use transform="matrix(0.05,0,0,0.05,0,0)" xlink:href="#bu"/><use transform="matrix(0.05,0,0,0.05,12.950000000000001,0)" xlink:href="#az"/><use transform="matrix(0.05,0,0,0.05,22.950000000000003,0)" xlink:href="#at"/><use transform="matrix(0.05,0,0,0.05,32.95,0)" xlink:href="#bv"/></g><g id="F"><use transform="matrix(0.05,0,0,0.05,0,0)" xlink:href="#aj"/><use transform="matrix(0.05,0,0,0.05,12,0)" xlink:href="#af"/><use transform="matrix(0.05,0,0,0.05,22,0)" xlink:href="#ah"/><use transform="matrix(0.05,0,0,0.05,27,0)" xlink:href="#ap"/><use transform="matrix(0.05,0,0,0.05,37,0)" xlink:href="#bd"/><use transform="matrix(0.05,0,0,0.05,51.95,0)" xlink:href="#ax"/><use transform="matrix(0.05,0,0,0.05,61.95,0)" xlink:href="#ah"/><use transform="matrix(0.05,0,0,0.05,66.95,0)" xlink:href="#at"/></g><g id="G"><use transform="matrix(0.05,0,0,0.05,0,0)" xlink:href="#aB"/><use transform="matrix(0.05,0,0,0.05,5,0)" xlink:href="#aC"/><use transform="matrix(0.05,0,0,0.05,15,0)" xlink:href="#bv"/><use transform="matrix(0.05,0,0,0.05,20,0)" xlink:href="#as"/><use transform="matrix(0.05,0,0,0.05,25.950000000000003,0)" xlink:href="#ax"/></g><path d="M190 0L58-211 59 0H30v-248h39L202-35l-2-213h31V0h-41" id="bw"/><g id="H"><use transform="matrix(0.05,0,0,0.05,0,0)" xlink:href="#bw"/><use transform="matrix(0.05,0,0,0.05,12.950000000000001,0)" xlink:href="#ap"/><use transform="matrix(0.05,0,0,0.05,22.950000000000003,0)" xlink:href="#aH"/><use transform="matrix(0.05,0,0,0.05,32.95,0)" xlink:href="#at"/><use transform="matrix(0.05,0,0,0.05,42.95,0)" xlink:href="#aq"/></g></defs></g></svg>